<svg width="96" height="27" viewBox="0 0 96 27" fill="none" xmlns="http://www.w3.org/2000/svg">
<path d="M16.218 7.256V20H12.24V13.646L10.278 20H6.858L4.896 13.646V20H0.9V7.256H5.796L8.604 14.906L11.34 7.256H16.218ZM26.1931 18.074H21.9451L21.3151 20H17.1211L21.7831 7.256H26.3911L31.0351 20H26.8231L26.1931 18.074ZM25.2211 15.068L24.0691 11.522L22.9171 15.068H25.2211ZM40.061 20L37.721 16.688L35.777 20H31.223L35.417 13.43L31.043 7.256H35.777L38.027 10.442L39.899 7.256H44.453L40.331 13.7L44.795 20H40.061Z" fill="white"/>
<path d="M84.122 20H80.126L75.896 13.592V20H71.9V7.256H75.896L80.126 13.772V7.256H84.122V20ZM89.9233 10.442V12.008H93.8833V15.014H89.9233V16.814H94.4233V20H85.9273V7.256H94.4233V10.442H89.9233Z" fill="white"/>
<circle cx="58" cy="13" r="10.5" stroke="#F1CE2C" stroke-width="3"/>
<path d="M64 13L55 18.1962V7.80385L64 13Z" fill="white"/>
</svg>
